<svg width="102" height="32" viewBox="0 0 102 32" fill="none" xmlns="http://www.w3.org/2000/svg">
<path d="M97.4462 20.5801V24.0001H93.9062V20.5801H97.4462Z" fill="#FF6800"/>
<path d="M15.4204 16.7705C15.4204 17.7926 15.2284 18.7594 14.8442 19.6709C14.4666 20.5824 13.9198 21.3831 13.2036 22.0732C12.4614 22.7829 11.6248 23.3265 10.6938 23.7041C9.76286 24.0817 8.79932 24.2705 7.80322 24.2705C6.93083 24.2705 6.07471 24.124 5.23486 23.8311C4.40153 23.5316 3.63656 23.1051 2.93994 22.5518C2.0415 21.8356 1.3514 20.9795 0.869629 19.9834C0.394368 18.9873 0.156738 17.9163 0.156738 16.7705C0.156738 15.7419 0.34554 14.7783 0.723145 13.8799C1.10075 12.9749 1.65413 12.1709 2.3833 11.4678C3.09945 10.7712 3.92952 10.2308 4.87354 9.84668C5.82406 9.46257 6.80062 9.27051 7.80322 9.27051C8.79932 9.27051 9.76611 9.46257 10.7036 9.84668C11.6476 10.2308 12.481 10.7712 13.2036 11.4678C13.9263 12.1709 14.4764 12.9749 14.854 13.8799C15.2316 14.7848 15.4204 15.7484 15.4204 16.7705ZM7.80322 21.5459C9.0988 21.5459 10.1665 21.0934 11.0063 20.1885C11.8527 19.277 12.2759 18.1377 12.2759 16.7705C12.2759 15.4163 11.8494 14.277 10.9966 13.3525C10.1437 12.4281 9.07926 11.9658 7.80322 11.9658C6.50765 11.9658 5.43343 12.4281 4.58057 13.3525C3.7277 14.2705 3.30127 15.4098 3.30127 16.7705C3.30127 18.1507 3.72119 19.2933 4.56104 20.1982C5.40088 21.0967 6.48161 21.5459 7.80322 21.5459Z" fill="#121212"/>
<path d="M22.8083 23.8896V9.59277H25.8649V21.292H30.7478V23.8896H22.8083Z" fill="#121212"/>
<path d="M36.5536 22.0732L38.2528 20.1494C38.4677 20.6768 38.8127 21.0934 39.288 21.3994C39.7632 21.6989 40.2971 21.8486 40.8895 21.8486C41.6057 21.8486 42.1721 21.6794 42.5888 21.3408C43.0054 21.0023 43.2138 20.5465 43.2138 19.9736C43.2138 19.2965 42.5204 18.6227 41.1337 17.9521C40.6845 17.7373 40.3297 17.5615 40.0692 17.4248C38.8192 16.7738 37.9534 16.139 37.4716 15.5205C36.9898 14.8955 36.7489 14.1533 36.7489 13.2939C36.7489 12.1156 37.2144 11.1488 38.1454 10.3936C39.0829 9.63184 40.2971 9.25098 41.788 9.25098C42.6539 9.25098 43.3993 9.40397 44.0243 9.70996C44.6558 10.0094 45.2125 10.4814 45.6942 11.126L43.8876 12.8545C43.6728 12.4378 43.3863 12.1286 43.0282 11.9268C42.6767 11.7184 42.2502 11.6143 41.7489 11.6143C41.1435 11.6143 40.6552 11.7673 40.2841 12.0732C39.913 12.3727 39.7274 12.7633 39.7274 13.2451C39.7274 14.0003 40.4631 14.6904 41.9345 15.3154C42.2274 15.4391 42.452 15.5368 42.6083 15.6084C43.8192 16.1618 44.7144 16.7868 45.2938 17.4834C45.8798 18.18 46.1728 18.9743 46.1728 19.8662C46.1728 21.2074 45.7138 22.2783 44.7958 23.0791C43.8843 23.8734 42.6571 24.2705 41.1142 24.2705C40.0204 24.2705 39.0829 24.0817 38.3017 23.7041C37.5204 23.3265 36.9377 22.7829 36.5536 22.0732Z" fill="#121212"/>
<path d="M60.8849 18.4502L59.2833 13.8311C59.2377 13.6943 59.1791 13.46 59.1075 13.1279C59.0359 12.7959 58.961 12.389 58.8829 11.9072C58.7983 12.3695 58.7169 12.7861 58.6388 13.1572C58.5606 13.5218 58.5021 13.766 58.463 13.8896L56.92 18.4502H60.8849ZM51.7833 23.8896L57.2228 9.59277H60.7188L66.2364 23.8896H62.7599L61.5978 20.8525H56.0606L55.0646 23.8896H51.7833Z" fill="#121212"/>
<path d="M71.3001 23.8896L73.4778 9.59277H76.681L79.4349 18.0107C79.4935 18.1865 79.5553 18.4437 79.6204 18.7822C79.692 19.1208 79.7571 19.5081 79.8157 19.9443C79.8678 19.5016 79.9264 19.1077 79.9915 18.7627C80.0566 18.4111 80.1185 18.154 80.177 17.9912L82.9798 9.59277H86.1341L88.3216 23.8896H85.4212L84.3763 15.2666C84.2981 14.6286 84.2461 14.1468 84.22 13.8213C84.194 13.4958 84.181 13.193 84.181 12.9131C84.181 12.7633 84.181 12.6527 84.181 12.5811C84.1875 12.5029 84.194 12.4346 84.2005 12.376C84.1028 12.9359 84.0084 13.4209 83.9173 13.8311C83.8326 14.2347 83.7545 14.5407 83.6829 14.749L80.6556 23.8896H78.9368L75.9583 14.749C75.9323 14.6644 75.8737 14.43 75.7825 14.0459C75.6979 13.6618 75.5774 13.1019 75.4212 12.3662V12.7861C75.4212 13.4502 75.3626 14.264 75.2454 15.2275L75.2356 15.2666L74.2005 23.8896H71.3001Z" fill="#121212"/>
</svg>
